<?xml version="1.0"?>
<svg xmlns="http://www.w3.org/2000/svg" xmlns:xlink="http://www.w3.org/1999/xlink" xmlns:svgjs="http://svgjs.com/svgjs" version="1.1" width="512" height="512" x="0" y="0" viewBox="0 0 512 512" style="enable-background:new 0 0 512 512" xml:space="preserve" class=""><g><g xmlns="http://www.w3.org/2000/svg" id="outline"><path d="M488,280H470.559L464.5,249.713a47.873,47.873,0,0,0-9.009-61.892l2.851-2.85L464,190.627a8,8,0,0,0,11.314,0l5.656-5.656a24,24,0,1,0-33.94-33.942l-5.657,5.657a8,8,0,0,0-1.481,2.059A8,8,0,0,0,432,152H416a8,8,0,0,0-7.892,6.745,8,8,0,0,0-1.481-2.059l-5.656-5.656a24,24,0,1,0-33.942,33.94l5.657,5.657a8,8,0,0,0,11.314,0l5.657-5.656,2.851,2.85a47.873,47.873,0,0,0-9.009,61.892L377.441,280h-53.7A47.8,47.8,0,0,0,336,248V224a7.98,7.98,0,0,0-2.88-6.144A152.33,152.33,0,0,0,344,161.141V144a8,8,0,0,0-13-6.247,152.934,152.934,0,0,0-25.855,26.379,105.636,105.636,0,0,0-6.871-17.465l-11.122-22.245a8,8,0,0,0-14.31,0l-11.122,22.245a105.65,105.65,0,0,0-6.872,17.466A152.932,152.932,0,0,0,229,137.753,8,8,0,0,0,216,144v17.141a152.318,152.318,0,0,0,10.88,56.714A7.984,7.984,0,0,0,224,224v9.825l-53.857-76.28a32,32,0,0,0-44.6-7.684c-.739.522-1.446,1.077-2.131,1.651A31.96,31.96,0,0,0,72,146.868,31.979,31.979,0,0,0,16,168V336a8,8,0,0,0,8,8H64v24a24,24,0,0,0,48,0V344H400v24a24,24,0,0,0,48,0V344h40a8,8,0,0,0,8-8V288A8,8,0,0,0,488,280Zm-47.581-10.894a47.914,47.914,0,0,0,10.558-5.427L454.241,280h-2.928ZM428.686,280h-9.372L424,275.314ZM464,160a8,8,0,0,1,5.656,13.657l-11.312-11.314A7.944,7.944,0,0,1,464,160Zm-24.862,3.6a7.988,7.988,0,0,0,2.234,4.4l5.657,5.657-5.623,5.623a47.666,47.666,0,0,0-9.406-2.6V168A7.994,7.994,0,0,0,439.138,163.6Zm-60.795,10.057a8,8,0,1,1,11.313-11.313l-11.312,11.314Zm22.628,0L406.628,168a7.988,7.988,0,0,0,2.234-4.4A7.994,7.994,0,0,0,416,168v8.679a47.666,47.666,0,0,0-9.406,2.6ZM424,192a32,32,0,1,1-32,32A32.036,32.036,0,0,1,424,192Zm-26.977,71.679a47.914,47.914,0,0,0,10.558,5.427L396.687,280h-2.928ZM128,208.819,178.258,280H128ZM236.262,280H218.63l11.684-8.25A48.216,48.216,0,0,0,236.262,280ZM240,248V232h80v16a32.036,32.036,0,0,1-32,32H272A32.036,32.036,0,0,1,240,248Zm88-85.923A136.474,136.474,0,0,1,316.564,216h-8.959l1.166-10.5a105.661,105.661,0,0,0,.4-18.9A136.817,136.817,0,0,1,328,162.077Zm-51.964-8.255L280,145.889l3.967,7.933a89.324,89.324,0,0,1,8.9,49.914L291.507,216H268.493l-1.362-12.264A89.324,89.324,0,0,1,276.033,153.822ZM250.826,186.6a105.672,105.672,0,0,0,.4,18.9L252.4,216h-8.959A136.486,136.486,0,0,1,232,162.079,136.863,136.863,0,0,1,250.826,186.6ZM128.234,173.285A16.01,16.01,0,0,1,143.968,160a16.216,16.216,0,0,1,2.751.236,15.9,15.9,0,0,1,10.353,6.539l64.6,91.494L195.53,276.724l-64.6-91.494A15.9,15.9,0,0,1,128.234,173.285ZM96,152a16.019,16.019,0,0,1,16,16V280H80V168A16.019,16.019,0,0,1,96,152ZM32,168a16,16,0,0,1,32,0V280H32ZM96,368a8,8,0,0,1-16,0V344H96Zm336,0a8,8,0,0,1-16,0V344h16Zm48-40H32V296H480Z" fill="#ffffff" data-original="#000000" style=""/><path d="M426.343,237.657a8,8,0,1,0,11.314-11.314L432,220.686V208a8,8,0,0,0-16,0v16a8,8,0,0,0,2.343,5.657Z" fill="#ffffff" data-original="#000000" style=""/></g></g></svg>
