<?xml version="1.0"?>
<svg xmlns="http://www.w3.org/2000/svg" xmlns:xlink="http://www.w3.org/1999/xlink" xmlns:svgjs="http://svgjs.com/svgjs" version="1.1" width="512" height="512" x="0" y="0" viewBox="0 0 480 480" style="enable-background:new 0 0 512 512" xml:space="preserve" class=""><g>
<g xmlns="http://www.w3.org/2000/svg">
	<g>
		<g>
			<path d="M284.042,8h-24c-2.122,0-4.156,0.844-5.656,2.344L240.73,24h-4.688V8c0-4.418-3.582-8-8-8h-72.248     c-33.851,0.021-65.579,16.494-85.072,44.168l-33.224,47.2c-2.606,3.568-1.825,8.573,1.743,11.179     c2.444,1.785,5.686,2.038,8.377,0.653l59.728-29.872c10.212-5.104,21.314-8.184,32.696-9.072V104c0,4.418,3.582,8,8,8h8v112h-8     c-4.418,0-8,3.582-8,8v208c0.026,22.08,17.92,39.974,40,40h16c22.08-0.026,39.974-17.92,40-40V232c0-4.418-3.582-8-8-8h-8V112h8     c4.418,0,8-3.582,8-8V88h4.688l13.656,13.656c1.5,1.5,3.534,2.344,5.656,2.344h24c4.418,0,8-3.582,8-8V16     C292.042,11.582,288.46,8,284.042,8z M220.042,440c0,13.255-10.745,24-24,24h-16c-13.255,0-24-10.745-24-24V240h64V440z      M172.042,224V112h32v112H172.042z M276.042,88h-12.688l-13.656-13.656c-1.5-1.5-3.534-2.344-5.656-2.344h-16     c-4.418,0-8,3.582-8,8v16h-64V56c0-4.418-3.582-8-8-8h-1.336c-16.143,0.021-32.062,3.778-46.512,10.976l-31.352,15.68     L83.81,53.368c16.5-23.418,43.353-37.354,72-37.368h64.232v16c0,4.418,3.582,8,8,8h16c2.122,0,4.156-0.844,5.656-2.344     L263.354,24h12.688V88z" fill="#ffffff" data-original="#000000" style="" class=""/>
			<path d="M441.77,210.832l-11.816-12.12l5.056-8.976c0.676-1.199,1.032-2.552,1.032-3.928v-128c0-30.928-25.072-56-56-56     c-30.928,0-56,25.072-56,56V185.16c-0.002,1.324,0.328,2.628,0.96,3.792l5.264,9.776L318.21,211.6     c-1.392,1.482-2.167,3.439-2.168,5.472V232c0,4.418,3.582,8,8,8h32v166.704l-8.256,24.8L357.49,480h45.104l9.704-48.512     l-8.256-24.784V240h32c4.418,0,8-3.582,8-8v-15.576C444.044,214.335,443.228,212.328,441.77,210.832z M389.49,464h-18.896     l-6.296-31.488L369.81,416h20.464l5.512,16.512L389.49,464z M372.042,400V240h16v160H372.042z M428.042,224h-96v-3.768     l13.832-14.76c2.355-2.509,2.841-6.243,1.208-9.272l-7.04-13.056V57.776c0-22.091,17.909-40,40-40c22.091,0,40,17.909,40,40     v125.928l-6.968,12.368c-1.744,3.094-1.239,6.968,1.24,9.512l13.728,14.088V224z" fill="#ffffff" data-original="#000000" style="" class=""/>
			<path d="M364.042,40c-4.418,0-8,3.582-8,8v128c0,4.418,3.582,8,8,8s8-3.582,8-8V48C372.042,43.582,368.46,40,364.042,40z" fill="#ffffff" data-original="#000000" style="" class=""/>
			<path d="M396.042,40c-4.418,0-8,3.582-8,8v128c0,4.418,3.582,8,8,8s8-3.582,8-8V48C404.042,43.582,400.46,40,396.042,40z" fill="#ffffff" data-original="#000000" style="" class=""/>
		</g>
	</g>
</g>
<g xmlns="http://www.w3.org/2000/svg">
</g>
<g xmlns="http://www.w3.org/2000/svg">
</g>
<g xmlns="http://www.w3.org/2000/svg">
</g>
<g xmlns="http://www.w3.org/2000/svg">
</g>
<g xmlns="http://www.w3.org/2000/svg">
</g>
<g xmlns="http://www.w3.org/2000/svg">
</g>
<g xmlns="http://www.w3.org/2000/svg">
</g>
<g xmlns="http://www.w3.org/2000/svg">
</g>
<g xmlns="http://www.w3.org/2000/svg">
</g>
<g xmlns="http://www.w3.org/2000/svg">
</g>
<g xmlns="http://www.w3.org/2000/svg">
</g>
<g xmlns="http://www.w3.org/2000/svg">
</g>
<g xmlns="http://www.w3.org/2000/svg">
</g>
<g xmlns="http://www.w3.org/2000/svg">
</g>
<g xmlns="http://www.w3.org/2000/svg">
</g>
</g></svg>
