<?xml version="1.0"?>
<svg xmlns="http://www.w3.org/2000/svg" xmlns:xlink="http://www.w3.org/1999/xlink" xmlns:svgjs="http://svgjs.com/svgjs" version="1.1" width="512" height="512" x="0" y="0" viewBox="0 0 512 512.00101" style="enable-background:new 0 0 512 512" xml:space="preserve" class=""><g><path xmlns="http://www.w3.org/2000/svg" d="m8.535156 477.867188h8.53125c23.554688-.027344 42.640625-19.113282 42.667969-42.667969v-59.734375h34.132813c9.421874.011718 17.058593 7.648437 17.066406 17.070312v12.796875c-.035156 58.070313 46.410156 105.484375 104.464844 106.648438 58.058593 1.160156 106.367187-44.359375 108.652343-102.378907h17.28125c11.007813.035157 20.796875-6.992187 24.285157-17.429687 3.488281-10.441406-.109376-21.9375-8.929688-28.527344l24.8125-24.8125c.40625-.546875.8125-1.097656 1.21875-1.644531.289062-.496094.523438-1.023438.707031-1.566406.085938-.234375.234375-.421875.300781-.667969l49.535157-189.886719h13.730469c6.472656.023438 12.390624-3.636718 15.265624-9.433594l8.535157-17.066406c2.644531-5.289062 2.363281-11.574218-.746094-16.605468-3.113281-5.03125-8.605469-8.09375-14.523437-8.09375h-29.289063c-4.472656-53.011719-48.765625-93.7851568-101.96875-93.867188h-51.199219c-53.199218.0820312-97.492187 40.855469-101.964844 93.867188h-29.292968c-5.914063 0-11.410156 3.0625-14.519532 8.09375-3.109374 5.03125-3.394531 11.316406-.746093 16.605468l8.53125 17.066406c2.875 5.796876 8.796875 9.457032 15.269531 9.433594h13.730469l49.535156 189.886719c.0625.246094.21875.433594.300781.667969.179688.542968.417969 1.070312.707032 1.566406.40625.546875.808593 1.097656 1.21875 1.644531l24.808593 24.8125c-8.816406 6.589844-12.414062 18.085938-8.925781 28.527344 3.488281 10.4375 13.277344 17.464844 24.28125 17.429687h16.851562c-2.285156 29.707032-27.640624 52.296876-57.414062 51.148438-29.773438-1.144531-53.3125-25.621094-53.304688-55.417969v-12.796875c-.042968-37.6875-30.582031-68.226562-68.265624-68.269531h-34.132813v-59.730469c-.027344-23.554687-19.113281-42.640625-42.667969-42.667968h-8.53125c-4.714844 0-8.535156 3.820312-8.535156 8.53125v238.933593c0 4.714844 3.820312 8.535157 8.535156 8.535157zm307.199219-153.601563h-34.132813v-51.199219c0-9.425781 7.640626-17.066406 17.066407-17.066406s17.066406 7.640625 17.066406 17.066406zm-42.667969 17.066406h81.800782l-17.066407 17.066407h-78.265625l-17.066406-17.066407zm0-324.265625h51.199219c43.804687.058594 80.46875 33.222656 84.910156 76.800782h-221.015625c4.4375-43.578126 41.105469-76.742188 84.90625-76.800782zm-131.257812 93.867188h313.714844l-8.53125 17.066406h-296.648438zm122.726562 34.132812h151.085938l-46.75 179.199219h-36.070313v-51.199219c0-18.851562-15.28125-34.132812-34.132812-34.132812-18.851563 0-34.132813 15.28125-34.132813 34.132812v51.199219h-36.074218l-46.75-179.199219zm-17.066406 238.933594c.003906-4.710938 3.820312-8.527344 8.53125-8.535156h85.332031c4.714844 0 8.535157 3.824218 8.535157 8.535156s-3.820313 8.535156-8.535157 8.535156h-85.332031c-4.710938-.007812-8.527344-3.824218-8.53125-8.535156zm-153.601562-42.667969c28.265624.03125 51.167968 22.9375 51.199218 51.203125v12.796875c-.015625 39.214844 31.15625 71.335938 70.355469 72.492188 39.195313 1.152343 72.207031-29.074219 74.496094-68.222657h17.066406c-2.277344 48.59375-42.941406 86.484376-91.578125 85.324219-48.636719-1.160156-87.445312-40.941406-87.40625-89.59375v-12.796875c-.019531-18.84375-15.289062-34.113281-34.132812-34.136718h-34.132813v-17.066407zm-76.800782-102.398437c14.132813.015625 25.585938 11.46875 25.601563 25.601562v170.664063c-.015625 14.132812-11.46875 25.585937-25.601563 25.601562zm0 0" fill="#ffffff" data-original="#000000" style="" class=""/><path xmlns="http://www.w3.org/2000/svg" d="m298.667969 213.332031c4.710937 0 8.53125-3.820312 8.53125-8.53125v-17.066406c0-4.714844-3.820313-8.535156-8.53125-8.535156-4.714844 0-8.535157 3.820312-8.535157 8.535156v17.066406c0 4.710938 3.820313 8.53125 8.535157 8.53125zm0 0" fill="#ffffff" data-original="#000000" style="" class=""/><path xmlns="http://www.w3.org/2000/svg" d="m241.433594 210.832031 17.066406 17.066407c3.347656 3.234374 8.671875 3.1875 11.964844-.101563 3.289062-3.292969 3.335937-8.613281.101562-11.964844l-17.066406-17.066406c-3.347656-3.234375-8.671875-3.1875-11.960938.105469-3.292968 3.292968-3.339843 8.613281-.105468 11.960937zm0 0" fill="#ffffff" data-original="#000000" style="" class=""/><path xmlns="http://www.w3.org/2000/svg" d="m332.800781 230.398438c2.261719.003906 4.433594-.894532 6.03125-2.5l17.066407-17.066407c3.234374-3.347656 3.1875-8.667969-.101563-11.960937-3.292969-3.292969-8.613281-3.339844-11.960937-.105469l-17.070313 17.066406c-2.4375 2.441407-3.167969 6.113281-1.847656 9.300781 1.320312 3.1875 4.433593 5.265626 7.882812 5.265626zm0 0" fill="#ffffff" data-original="#000000" style="" class=""/><path xmlns="http://www.w3.org/2000/svg" d="m238.933594 59.734375h-8.53125c-4.714844 0-8.535156 3.820313-8.535156 8.53125 0 4.714844 3.820312 8.535156 8.535156 8.535156h8.53125c4.714844 0 8.535156-3.820312 8.535156-8.535156 0-4.710937-3.820312-8.53125-8.535156-8.53125zm0 0" fill="#ffffff" data-original="#000000" style="" class=""/><path xmlns="http://www.w3.org/2000/svg" d="m358.402344 59.734375h-85.335938c-4.710937 0-8.53125 3.820313-8.53125 8.53125 0 4.714844 3.820313 8.535156 8.53125 8.535156h85.335938c4.710937 0 8.53125-3.820312 8.53125-8.535156 0-4.710937-3.820313-8.53125-8.53125-8.53125zm0 0" fill="#ffffff" data-original="#000000" style="" class=""/></g></svg>
