<?xml version="1.0" encoding="utf-8"?>
<!-- Generator: Adobe Illustrator 24.3.0, SVG Export Plug-In . SVG Version: 6.00 Build 0)  -->
<svg version="1.1" id="Camada_1" xmlns:svgjs="http://svgjs.com/svgjs"
	 xmlns="http://www.w3.org/2000/svg" xmlns:xlink="http://www.w3.org/1999/xlink" x="0px" y="0px" viewBox="0 0 512 512"
	 style="enable-background:new 0 0 512 512;" xml:space="preserve">
<style type="text/css">
	.st0{fill:#FFFFFF;}
</style>
<g>
	<path class="st0" d="M256,358.4c-28.3,0-51.2,22.9-51.2,51.2s22.9,51.2,51.2,51.2s51.2-22.9,51.2-51.2
		C307.2,381.3,284.3,358.4,256,358.4z M256,443.7c-18.8,0-34.1-15.2-34.1-34c0-15.6,10.5-29.2,25.6-33v7.3c0,4.7,3.8,8.5,8.5,8.5
		c4.7,0,8.5-3.8,8.5-8.5v-7.3c18.2,4.7,29.2,23.3,24.5,41.5C285.2,433.2,271.6,443.8,256,443.7z"/>
	<path class="st0" d="M281.6,162.1c4.7,0,8.5-3.8,8.5-8.5c0-4.7-3.8-8.5-8.5-8.5h-17.1V128c0-4.7-3.8-8.5-8.5-8.5
		c-4.7,0-8.5,3.8-8.5,8.5v17.1h-17.1c-4.7,0-8.5,3.8-8.5,8.5c0,4.7,3.8,8.5,8.5,8.5h17.1v34.1h-17.1c-4.7,0-8.5,3.8-8.5,8.5
		c0,4.7,3.8,8.5,8.5,8.5h17.1v34.1h-17.1c-4.7,0-8.5,3.8-8.5,8.5c0,4.7,3.8,8.5,8.5,8.5h17.1v17.1c0,4.7,3.8,8.5,8.5,8.5
		c4.7,0,8.5-3.8,8.5-8.5v-17.1h17.1c4.7,0,8.5-3.8,8.5-8.5c0-4.7-3.8-8.5-8.5-8.5h-17.1v-34.1h17.1c4.7,0,8.5-3.8,8.5-8.5
		c0-4.7-3.8-8.5-8.5-8.5h-17.1v-34.1H281.6z"/>
	<path class="st0" d="M401.1,221.9c14.1,0,25.6-11.5,25.6-25.6v-85.3c0-14.1-11.5-25.6-25.6-25.6h-18.1l0.5-8.5h0.5
		c4.7,0,8.5-3.8,8.5-8.5V42.7c0-9.4-7.6-17.1-17.1-17.1h-93.9v-8.5C281.6,7.6,274,0,264.5,0h-17.1c-9.4,0-17.1,7.6-17.1,17.1v8.5
		h-93.9c-9.4,0-17.1,7.6-17.1,17.1v25.6H93.9c-4.7,0-8.5,3.8-8.5,8.5c0,2.3,0.9,4.4,2.5,6l43.8,43.8l12.9,206.2h-8
		c-2.9,0-5.7,1.5-7.2,4l-42.7,68.3c-0.8,1.4-1.3,2.9-1.3,4.5v59.7c0,9.4,7.6,17.1,17.1,17.1h17.1v17.1c0,4.7,3.8,8.5,8.5,8.5h51.2
		c4.7,0,8.5-3.8,8.5-8.5v-17.1h136.5v17.1c0,4.7,3.8,8.5,8.5,8.5H384c4.7,0,8.5-3.8,8.5-8.5v-17.1h17.1c9.4,0,17.1-7.6,17.1-17.1
		v-59.7c0-1.6-0.4-3.2-1.3-4.5l-42.7-68.3c-1.6-2.5-4.3-4-7.2-4h-8l6.9-110.9H401.1z M401.1,102.4c4.7,0,8.5,3.8,8.5,8.5v85.3
		c0,4.7-3.8,8.5-8.5,8.5h-25.6l6.4-102.4L401.1,102.4L401.1,102.4z M247.5,17.1h17.1v8.5h-17.1V17.1z M136.5,42.7h238.9v17.1H136.5
		V42.7z M114.5,85.3H129l1,15.6L114.5,85.3z M170.7,494.9h-34.1v-8.5h34.1V494.9z M375.5,494.9h-34.1v-8.5h34.1V494.9z M409.6,412.1
		v57.3H102.4v-57.3l38.9-62.2h229.5L409.6,412.1z M161.6,332.8l-16-256h220.8l-16,256H161.6z"/>
</g>
</svg>
