<?xml version="1.0"?>
<svg xmlns="http://www.w3.org/2000/svg" xmlns:xlink="http://www.w3.org/1999/xlink" xmlns:svgjs="http://svgjs.com/svgjs" version="1.1" width="512" height="512" x="0" y="0" viewBox="0 0 512 512" style="enable-background:new 0 0 512 512" xml:space="preserve" class=""><g><g xmlns="http://www.w3.org/2000/svg" id="outline"><path d="M216,288a88,88,0,1,0,88,88A88.1,88.1,0,0,0,216,288Zm0,160a72,72,0,1,1,72-72A72.081,72.081,0,0,1,216,448Z" fill="#ffffff" data-original="#000000" style=""/><path d="M216,384a24,24,0,1,0,24,24A24.028,24.028,0,0,0,216,384Zm0,32a8,8,0,1,1,8-8A8.009,8.009,0,0,1,216,416Z" fill="#ffffff" data-original="#000000" style=""/><path d="M208,356v-8a20,20,0,0,0-40,0v8a20,20,0,0,0,40,0Zm-16,0a4,4,0,0,1-8,0v-8a4,4,0,0,1,8,0Z" fill="#ffffff" data-original="#000000" style=""/><path d="M244,328a20.023,20.023,0,0,0-20,20v8a20,20,0,0,0,40,0v-8A20.023,20.023,0,0,0,244,328Zm4,28a4,4,0,0,1-8,0v-8a4,4,0,0,1,8,0Z" fill="#ffffff" data-original="#000000" style=""/><path d="M472,96h-8V40a24,24,0,0,0-48,0V96H384V40a24,24,0,0,0-48,0V96h-8a24,24,0,0,0-8,46.624V192a79.522,79.522,0,0,0,40,69.283V264a39.962,39.962,0,0,0,16,31.978V336H336V264a8,8,0,0,0-8-8H104a8,8,0,0,0-8,8v72H56a40.045,40.045,0,0,0-40,40v56a40.045,40.045,0,0,0,40,40H96v16a8,8,0,0,0,8,8H328a8,8,0,0,0,8-8V384h48a40.045,40.045,0,0,0,40-40V295.978A39.962,39.962,0,0,0,440,264v-2.717A79.522,79.522,0,0,0,480,192V142.624A24,24,0,0,0,472,96ZM432,40a8,8,0,0,1,16,0V96H432Zm-80,0a8,8,0,0,1,16,0V96H352ZM96,424H64V384H96ZM56,456a24.028,24.028,0,0,1-24-24V376a24.028,24.028,0,0,1,24-24H96v16H64a16.019,16.019,0,0,0-16,16v40a16.019,16.019,0,0,0,16,16H96v16Zm264,24H112V272H320Zm88-136a24.028,24.028,0,0,1-24,24H336V352h40a16.019,16.019,0,0,0,16-16V303.2a40.154,40.154,0,0,0,16,0Zm56-152a63.674,63.674,0,0,1-35.562,57.334A8,8,0,0,0,424,256.5V264a24,24,0,0,1-48,0v-7.5a8,8,0,0,0-4.438-7.164A63.674,63.674,0,0,1,336,192V144H464Zm8-64H328a8,8,0,0,1,0-16H472a8,8,0,0,1,0,16Z" fill="#ffffff" data-original="#000000" style=""/><path d="M368,176h8a8,8,0,0,0,0-16h-8a8,8,0,0,0,0,16Z" fill="#ffffff" data-original="#000000" style=""/><path d="M408,176h32a8,8,0,0,0,0-16H408a8,8,0,0,0,0,16Z" fill="#ffffff" data-original="#000000" style=""/></g></g></svg>
