<?xml version="1.0" encoding="utf-8"?>
<!-- Generator: Adobe Illustrator 24.3.0, SVG Export Plug-In . SVG Version: 6.00 Build 0)  -->
<svg version="1.1" id="Layer_1" xmlns="http://www.w3.org/2000/svg" xmlns:xlink="http://www.w3.org/1999/xlink" x="0px" y="0px"
	 viewBox="0 0 288 288" style="enable-background:new 0 0 288 288;" xml:space="preserve">
<style type="text/css">
	.st0{fill:#151515;}
	.st1{fill:#FA5F1A;}
	.st2{font-family:'Poppins-ExtraBoldItalic';}
	.st3{font-size:30.7848px;}
	.st4{font-size:14.6808px;}
	.st5{font-size:31.459px;}
</style>
<g>
	<g>
		<path class="st0" d="M71.94,125.94c-0.86-9.39-2.89-17.41-5.12-21.26c-13.21,10.79-28.49,16.64-31.88,17.86l1.24,13.5
			c2.12,0.39,8.68,1.72,16.79,4.39l0.07,0.75c0.1,1.14-0.74,2.16-1.88,2.26l-15.41,1.42c-1.14,0.11-2.16-0.74-2.26-1.88l-0.71-7.72
			l1.13-0.1l-1.04-11.33l-6.91,0.64c-0.39,0.04-0.66,0.51-0.83,1.24l-2.22,0.2c-1.46,0.13-0.63,9.17,0.83,9.03l2.22-0.2
			c0.3,0.69,0.65,1.1,1.04,1.07l3.48-0.32l0.71,7.72c0.22,2.41,2.37,4.2,4.78,3.97l15.41-1.42c2.32-0.21,4.06-2.2,3.99-4.5
			c4.9,1.71,10.22,3.88,15.4,6.62C72.28,143.69,72.81,135.39,71.94,125.94z"/>
		<path class="st0" d="M70.33,101.65c-0.69,0.06-1.3,0.63-1.82,1.61c2.53,3.16,4.94,11.96,5.91,22.45
			c0.97,10.53,0.19,19.64-1.73,23.19c0.03,0.02,0.06,0.03,0.09,0.05c0.67,0.81,1.35,1.23,2.01,1.17c3.18-0.29,4.77-11.38,3.54-24.76
			C77.1,111.97,73.51,101.35,70.33,101.65z"/>
		<text transform="matrix(0.9914 -0.1309 0.1309 0.9914 89.6811 147.1458)" class="st1 st2 st3">NOVEMBER</text>
		<text transform="matrix(0.9914 -0.1309 0.1309 0.9914 90.0971 162.3134)" class="st0 st2 st4">15% DE DESCONTO</text>
		<text transform="matrix(0.9914 -0.1309 0.1309 0.9914 90.0976 122.2444)" class="st0 st2 st5">BLACK</text>
	</g>
	<g>
		<path class="st1" d="M139.89,76.57c-0.08,0-0.16-0.03-0.23-0.08c-0.17-0.13-0.21-0.38-0.08-0.56l23.79-33.31
			c0.13-0.18,0.37-0.22,0.55-0.09c0.17,0.13,0.21,0.38,0.08,0.56l-23.79,33.31C140.13,76.52,140.01,76.57,139.89,76.57z"/>
	</g>
	<g>
		<path class="st1" d="M65.66,209.8c-0.08,0-0.16-0.03-0.23-0.08c-0.17-0.13-0.21-0.38-0.08-0.56l23.79-33.31
			c0.13-0.18,0.37-0.22,0.55-0.09c0.17,0.13,0.21,0.38,0.08,0.56l-23.79,33.31C65.9,209.74,65.78,209.8,65.66,209.8z"/>
	</g>
	<g>
		<path class="st1" d="M100.34,215.28c-0.08,0-0.16-0.03-0.23-0.08c-0.17-0.13-0.21-0.38-0.08-0.56l11.18-15.65
			c0.13-0.18,0.37-0.22,0.55-0.09c0.17,0.13,0.21,0.38,0.08,0.56l-11.18,15.65C100.58,215.22,100.46,215.28,100.34,215.28z"/>
	</g>
	<g>
		<path class="st1" d="M107.5,86.33c-0.08,0-0.16-0.03-0.23-0.08c-0.17-0.13-0.21-0.38-0.08-0.56l11.18-15.65
			c0.13-0.18,0.37-0.22,0.55-0.09c0.17,0.13,0.21,0.38,0.08,0.56l-11.18,15.65C107.74,86.27,107.62,86.33,107.5,86.33z"/>
	</g>
</g>
</svg>
