<?xml version="1.0"?>
<svg xmlns="http://www.w3.org/2000/svg" xmlns:xlink="http://www.w3.org/1999/xlink" xmlns:svgjs="http://svgjs.com/svgjs" version="1.1" width="512" height="512" x="0" y="0" viewBox="0 0 511.995 511.995" style="enable-background:new 0 0 512 512" xml:space="preserve" class=""><g>
<g xmlns="http://www.w3.org/2000/svg">
	<g>
		<path d="M48,240H16c-8.832,0-16,7.168-16,16v224c0,8.832,7.168,16,16,16h32c8.832,0,16-7.168,16-16V256    C64,247.168,56.832,240,48,240z" fill="#151515" data-original="#000000" style=""/>
	</g>
</g>
<g xmlns="http://www.w3.org/2000/svg">
	<g>
		<path d="M501.888,274.528c-16.256-20.96-46.464-24.704-67.328-8.416l-118.016,91.776c-8.448,6.56-18.816,10.112-29.472,10.112H176    c44.192,0,80-35.808,80-80c0-8.832-7.168-16-16-16H96v96v96h212.992c17.792,0,35.072-5.92,49.12-16.864l135.36-105.28    C514.4,325.6,518.144,295.456,501.888,274.528z" fill="#151515" data-original="#000000" style=""/>
	</g>
</g>
<g xmlns="http://www.w3.org/2000/svg">
	<g>
		<path d="M272,16c-26.464,0-48,21.536-48,48s21.536,48,48,48s48-21.536,48-48S298.464,16,272,16z M272,80c-8.832,0-16-7.168-16-16    c0-8.832,7.168-16,16-16c8.832,0,16,7.168,16,16C288,72.832,280.832,80,272,80z" fill="#151515" data-original="#000000" style=""/>
	</g>
</g>
<g xmlns="http://www.w3.org/2000/svg">
	<g>
		<path d="M368,144c-26.464,0-48,21.536-48,48s21.536,48,48,48s48-21.536,48-48S394.464,144,368,144z M368,208    c-8.8,0-16-7.168-16-16c0-8.832,7.2-16,16-16s16,7.168,16,16C384,200.832,376.8,208,368,208z" fill="#151515" data-original="#000000" style=""/>
	</g>
</g>
<g xmlns="http://www.w3.org/2000/svg">
	<g>
		<path d="M410.304,19.68c-6.752-5.6-16.832-4.736-22.528,2.048l-160,192c-5.728,6.816-4.8,16.928,1.984,22.56    c2.976,2.496,6.624,3.712,10.24,3.712c4.608,0,9.152-1.952,12.32-5.76l160-192C417.984,35.456,417.056,25.344,410.304,19.68z" fill="#151515" data-original="#000000" style=""/>
	</g>
</g>
<g xmlns="http://www.w3.org/2000/svg">
</g>
<g xmlns="http://www.w3.org/2000/svg">
</g>
<g xmlns="http://www.w3.org/2000/svg">
</g>
<g xmlns="http://www.w3.org/2000/svg">
</g>
<g xmlns="http://www.w3.org/2000/svg">
</g>
<g xmlns="http://www.w3.org/2000/svg">
</g>
<g xmlns="http://www.w3.org/2000/svg">
</g>
<g xmlns="http://www.w3.org/2000/svg">
</g>
<g xmlns="http://www.w3.org/2000/svg">
</g>
<g xmlns="http://www.w3.org/2000/svg">
</g>
<g xmlns="http://www.w3.org/2000/svg">
</g>
<g xmlns="http://www.w3.org/2000/svg">
</g>
<g xmlns="http://www.w3.org/2000/svg">
</g>
<g xmlns="http://www.w3.org/2000/svg">
</g>
<g xmlns="http://www.w3.org/2000/svg">
</g>
</g></svg>
