<?xml version="1.0"?>
<svg xmlns="http://www.w3.org/2000/svg" xmlns:xlink="http://www.w3.org/1999/xlink" xmlns:svgjs="http://svgjs.com/svgjs" version="1.1" width="512" height="512" x="0" y="0" viewBox="0 0 512 512" style="enable-background:new 0 0 512 512" xml:space="preserve" class=""><g>
<g xmlns="http://www.w3.org/2000/svg">
	<g>
		<path d="M256,0c-8.832,0-16,7.168-16,16v128c0,8.832,7.168,16,16,16c8.832,0,16-7.168,16-16V16C272,7.168,264.832,0,256,0z" fill="#ffffff" data-original="#000000" style="" class=""/>
	</g>
</g>
<g xmlns="http://www.w3.org/2000/svg">
	<g>
		<circle cx="304" cy="400" r="16" fill="#ffffff" data-original="#000000" style="" class=""/>
	</g>
</g>
<g xmlns="http://www.w3.org/2000/svg">
	<g>
		<circle cx="208" cy="272" r="16" fill="#ffffff" data-original="#000000" style="" class=""/>
	</g>
</g>
<g xmlns="http://www.w3.org/2000/svg">
	<g>
		<path d="M326.624,64H304v80c0,26.464-21.536,48-48,48s-48-21.536-48-48V64h-22.656L96,153.376V480c0,17.664,14.368,32,32,32h256    c17.664,0,32-14.336,32-32V153.376L326.624,64z M208,224c26.464,0,48,21.536,48,48s-21.536,48-48,48s-48-21.536-48-48    S181.536,224,208,224z M176,448c-3.616,0-7.232-1.216-10.24-3.712c-6.784-5.664-7.712-15.744-2.048-22.528l160-192    c5.696-6.784,15.776-7.648,22.528-2.048c6.784,5.664,7.68,15.744,2.016,22.56l-160,192C185.12,446.016,180.576,448,176,448z     M304,448c-26.464,0-48-21.536-48-48s21.536-48,48-48s48,21.536,48,48S330.464,448,304,448z" fill="#ffffff" data-original="#000000" style="" class=""/>
	</g>
</g>
<g xmlns="http://www.w3.org/2000/svg">
</g>
<g xmlns="http://www.w3.org/2000/svg">
</g>
<g xmlns="http://www.w3.org/2000/svg">
</g>
<g xmlns="http://www.w3.org/2000/svg">
</g>
<g xmlns="http://www.w3.org/2000/svg">
</g>
<g xmlns="http://www.w3.org/2000/svg">
</g>
<g xmlns="http://www.w3.org/2000/svg">
</g>
<g xmlns="http://www.w3.org/2000/svg">
</g>
<g xmlns="http://www.w3.org/2000/svg">
</g>
<g xmlns="http://www.w3.org/2000/svg">
</g>
<g xmlns="http://www.w3.org/2000/svg">
</g>
<g xmlns="http://www.w3.org/2000/svg">
</g>
<g xmlns="http://www.w3.org/2000/svg">
</g>
<g xmlns="http://www.w3.org/2000/svg">
</g>
<g xmlns="http://www.w3.org/2000/svg">
</g>
</g></svg>
