<?xml version="1.0"?>
<svg xmlns="http://www.w3.org/2000/svg" xmlns:xlink="http://www.w3.org/1999/xlink" xmlns:svgjs="http://svgjs.com/svgjs" version="1.1" width="512" height="512" x="0" y="0" viewBox="0 0 511 512" style="enable-background:new 0 0 512 512" xml:space="preserve" class=""><g><path xmlns="http://www.w3.org/2000/svg" d="m495.121094 300.386719c6.359375.035156 12.226562-3.421875 15.273437-9.003907 3.109375-5.582031 2.75-12.449218-.921875-17.679687l-23.035156-33.609375c-14.683594-20.972656-40.640625-30.921875-65.582031-25.140625l-87.792969 21.675781c-1.160156-13.15625-12.160156-23.253906-25.367188-23.296875v-8.53125c-.03125-10.8125-6.867187-20.4375-17.066406-24.027343v-112.507813h8.535156c18.84375-.019531 34.113282-15.289063 34.132813-34.132813v-25.597656c0-4.714844-3.820313-8.535156-8.535156-8.535156h-136.53125c-4.714844 0-8.535157 3.820312-8.535157 8.535156v25.597656c.019532 18.84375 15.292969 34.113282 34.132813 34.132813h8.535156v112.507813c-10.199219 3.589843-17.035156 13.214843-17.066406 24.027343v8.53125c-13.527344.039063-24.683594 10.605469-25.449219 24.109375l-161.21875-7.039062c-6.660156-.351563-12.921875 3.183594-16.058594 9.070312-3.070312 5.59375-2.703124 12.449219.953126 17.683594l23.046874 33.621094c11.746094 16.785156 30.988282 26.738281 51.476563 26.621094 4.789063.003906 9.5625-.535157 14.234375-1.601563l87.414062-23.113281v5.984375c.019532 6.066406 3.273438 11.667969 8.535157 14.691406v19.441406c.019531 18.84375 15.289062 34.113281 34.132812 34.132813h68.265625c18.84375-.019532 34.113282-15.289063 34.132813-34.132813v-19.441406c5.261719-3.023437 8.515625-8.625 8.535156-14.691406v-6.734375l160.964844 8.433594c.285156.011718.578125.019531.859375.019531zm-70.324219-68.832031c18.074219-4.210938 36.890625 2.984374 47.550781 18.175781l22.765625 33.589843-179.515625-9.398437 14.164063-18.898437zm-228.035156-197.421876v-17.066406h119.46875v17.066406c-.011719 9.421876-7.644531 17.054688-17.066407 17.066407h-85.335937c-9.417969-.011719-17.054687-7.644531-17.066406-17.066407zm76.800781 34.132813v110.933594h-34.132812v-110.933594zm-51.199219 136.535156c.003907-4.710937 3.820313-8.53125 8.53125-8.535156h51.203125c4.710938.003906 8.527344 3.824219 8.53125 8.535156v8.53125h-68.265625zm-134.167969 94.417969c-18.054687 4.210938-36.859374-2.945312-47.546874-18.09375l-22.695313-33.667969 179.34375 7.832031-14.117187 18.820313zm219.5 33.582031c-.007812 9.421875-7.644531 17.054688-17.066406 17.066407h-68.265625c-9.421875-.011719-17.054687-7.644532-17.066406-17.066407v-17.066406h102.398437zm8.535157-34.132812h-119.46875v-14.226563l23.894531-31.855468c1.898438-2.53125 2.242188-5.90625.890625-8.765626-1.355469-2.863281-4.179687-4.738281-7.339844-4.878906l-17.292969-.753906c.355469-4.378906 3.992188-7.757812 8.382813-7.789062h102.398437c4.710938.003906 8.53125 3.824218 8.535157 8.535156v5.691406l-23.894531 31.855469c-1.894532 2.519531-2.242188 5.878906-.910157 8.734375 1.335938 2.855468 4.136719 4.742187 7.285157 4.90625l17.519531.917968zm0 0" fill="#252525" data-original="#000000" style="" class=""/><path xmlns="http://www.w3.org/2000/svg" d="m247.964844 426.667969v76.796875c0 4.714844 3.820312 8.535156 8.53125 8.535156 4.714844 0 8.535156-3.820312 8.535156-8.535156v-76.796875c0-4.714844-3.820312-8.535157-8.535156-8.535157-4.710938 0-8.53125 3.820313-8.53125 8.535157zm0 0" fill="#252525" data-original="#000000" style="" class=""/><path xmlns="http://www.w3.org/2000/svg" d="m198.789062 395.867188-58.726562 49.492187c-3.601562 3.039063-4.0625 8.421875-1.023438 12.023437 3.035157 3.605469 8.421876 4.0625 12.023438 1.027344l58.726562-49.492187c2.332032-1.964844 3.4375-5.027344 2.898438-8.027344-.535156-3-2.632812-5.488281-5.5-6.523437-2.867188-1.039063-6.066406-.464844-8.398438 1.5zm0 0" fill="#252525" data-original="#000000" style="" class=""/><path xmlns="http://www.w3.org/2000/svg" d="m301.171875 396.890625c-3.035156 3.605469-2.574219 8.984375 1.023437 12.027344l58.726563 49.492187c3.605469 3.039063 8.988281 2.578125 12.027344-1.027344 3.039062-3.605468 2.578125-8.992187-1.027344-12.027343l-58.726563-49.492188c-1.730468-1.460937-3.96875-2.171875-6.222656-1.976562-2.257812.191406-4.34375 1.273437-5.800781 3.003906zm0 0" fill="#252525" data-original="#000000" style="" class=""/></g></svg>
